# xmcd
#
# Track frame offsets: 
#        150
#        13369
#        24540
#        38326
#        56852
#        70160
#        86255
#        105165
#        118613
#        137797
#        151333
#        172005
#        186539
#
# Disc length: 2627 seconds
#
# Revision: 0
# Processed by: cddbd v1.5.2PL0 Copyright (c) Steve Scherf et al.
# Submitted via: ExactAudioCopy v0.95b4
#
DISCID=a90a410d
DTITLE=Haslev udvidede Højskole - Til tiden
DYEAR=2002
DGENRE=Blues
TTITLE0=Januar
TTITLE1=Februar
TTITLE2=Marts
TTITLE3=April
TTITLE4=Maj
TTITLE5=Juni
TTITLE6=Juli
TTITLE7=August
TTITLE8=September
TTITLE9=Oktober
TTITLE10=November
TTITLE11=December
TTITLE12=Fødselsdag
EXTD=
EXTT0=
EXTT1=
EXTT2=
EXTT3=
EXTT4=
EXTT5=
EXTT6=
EXTT7=
EXTT8=
EXTT9=
EXTT10=
EXTT11=
EXTT12=
PLAYORDER=
